# xmcd
#
# Track frame offsets:
#	150
#	15950
#	29005
#	45315
#	58163
#	72823
#	87793
#	102418
#
# Disc length: 1535 seconds
#
# Revision: 0
# Processed by: cddbd v1.5.2PL0 Copyright (c) Steve Scherf et al.
# Submitted via: EasyCDDAExtractor 16.0.6.1
#
DISCID=5d05fd08
DTITLE=Βοσκόπουλος Τόλης - Οκτώ μεγάλες επιτυχίες-Τ. Βοσκόπουλος
DYEAR=2006
DGENRE=Ελαφρολαϊκή
TTITLE0=Βοσκόπουλος Τόλης-Δούκισσα - Σαν της γαρδένιας τον ανθό [1967, Ζακ Ιακ
TTITLE0=ωβίδης-Ηλίας Λυμπερόπουλος]
TTITLE1=Βοσκόπουλος Τόλης - Κέρνα, κέρνα [1976, Στέλιος-Ζαφειρίου-Πυθαγόρας]
TTITLE2=Βοσκόπουλος Τόλης-Πάντα Ρένα - Μελαγχολία [1977, Τ. Βοσκόπουλος-Μίμης 
TTITLE2=Θειόπουλος]
TTITLE3=Βοσκόπουλος Τόλης-Κυριαζή Βάσω - Αγάπη δεν είσαι εσύ [1986, Νίκος Μπαξ
TTITLE3=εβάνης-Ηλίας Φιλίππου]
TTITLE4=Βοσκόπουλος Τόλης - Το κάδρο [1987, Θαν. Πολυκανδριώτης-Λ. Παπαδόπουλο
TTITLE4=ς]
TTITLE5=Βοσκόπουλος Τόλης - Φύγε λοιπόν [1986, Χρήστος Σκαλτσουνάκης-Μάνος Κου
TTITLE5=φιανάκης]
TTITLE6=Βοσκόπουλος Τόλης - Οι αναμνήσεις [1977, Τ. Βοσκόπουλος-Μίμης Θειόπουλ
TTITLE6=ος]
TTITLE7=Βοσκόπουλος Τόλης-Δούκισσα - Έχω μιάν αρραβωνιάρα [1967, Ζακ Ιακωβίδης
TTITLE7=Μ. Ελευθερίου-Ηλ. Λυμπερόπουλος]
EXTD=
EXTT0=
EXTT1=
EXTT2=
EXTT3=
EXTT4=
EXTT5=
EXTT6=
EXTT7=
PLAYORDER=
